<mxfile host="app.diagrams.net" modified="2021-03-29T11:38:31.896Z" agent="5.0 (Windows)" etag="cqxxsGT6VtbeWPLpmDRJ" version="14.5.3" type="github">
  <diagram id="YzbuWgH1EYbana974IAb" name="Page-1">
    <mxGraphModel dx="813" dy="436" grid="1" gridSize="10" guides="1" tooltips="1" connect="1" arrows="1" fold="1" page="1" pageScale="1" pageWidth="827" pageHeight="1169" math="0" shadow="0">
      <root>
        <mxCell id="0" />
        <mxCell id="1" parent="0" />
        <mxCell id="Wzdw9sVgJ23WoQxjr1G9-40" value="" style="rounded=0;whiteSpace=wrap;html=1;labelBackgroundColor=none;fillColor=#fff2cc;strokeColor=#d6b656;glass=0;sketch=1;" vertex="1" parent="1">
          <mxGeometry x="260" y="130" width="200" height="300" as="geometry" />
        </mxCell>
        <mxCell id="Wzdw9sVgJ23WoQxjr1G9-15" style="edgeStyle=orthogonalEdgeStyle;rounded=0;orthogonalLoop=1;jettySize=auto;html=1;exitX=0;exitY=0.5;exitDx=0;exitDy=0;entryX=1;entryY=0.25;entryDx=0;entryDy=0;fillColor=#d5e8d4;strokeColor=#82b366;" edge="1" parent="1" source="Wzdw9sVgJ23WoQxjr1G9-1" target="Wzdw9sVgJ23WoQxjr1G9-14">
          <mxGeometry relative="1" as="geometry" />
        </mxCell>
        <mxCell id="Wzdw9sVgJ23WoQxjr1G9-21" style="edgeStyle=orthogonalEdgeStyle;rounded=0;orthogonalLoop=1;jettySize=auto;html=1;exitX=0.75;exitY=0;exitDx=0;exitDy=0;entryX=1;entryY=0.5;entryDx=0;entryDy=0;endArrow=none;endFill=0;startArrow=classic;startFill=1;fillColor=#f8cecc;strokeColor=#b85450;" edge="1" parent="1" source="Wzdw9sVgJ23WoQxjr1G9-1" target="Wzdw9sVgJ23WoQxjr1G9-19">
          <mxGeometry relative="1" as="geometry">
            <Array as="points">
              <mxPoint x="380" y="220" />
              <mxPoint x="420" y="220" />
              <mxPoint x="420" y="195" />
            </Array>
          </mxGeometry>
        </mxCell>
        <mxCell id="Wzdw9sVgJ23WoQxjr1G9-1" value="ADC1" style="rounded=0;whiteSpace=wrap;html=1;" vertex="1" parent="1">
          <mxGeometry x="320" y="240" width="80" height="40" as="geometry" />
        </mxCell>
        <mxCell id="Wzdw9sVgJ23WoQxjr1G9-16" style="edgeStyle=orthogonalEdgeStyle;rounded=0;orthogonalLoop=1;jettySize=auto;html=1;exitX=0;exitY=0.5;exitDx=0;exitDy=0;entryX=1;entryY=0.5;entryDx=0;entryDy=0;fillColor=#d5e8d4;strokeColor=#82b366;" edge="1" parent="1" source="Wzdw9sVgJ23WoQxjr1G9-2" target="Wzdw9sVgJ23WoQxjr1G9-14">
          <mxGeometry relative="1" as="geometry" />
        </mxCell>
        <mxCell id="Wzdw9sVgJ23WoQxjr1G9-23" style="edgeStyle=orthogonalEdgeStyle;rounded=0;orthogonalLoop=1;jettySize=auto;html=1;exitX=0.75;exitY=0;exitDx=0;exitDy=0;endArrow=oval;endFill=1;jumpStyle=arc;startArrow=classic;startFill=1;fillColor=#f8cecc;strokeColor=#b85450;" edge="1" parent="1" source="Wzdw9sVgJ23WoQxjr1G9-2">
          <mxGeometry relative="1" as="geometry">
            <mxPoint x="420" y="220" as="targetPoint" />
            <Array as="points">
              <mxPoint x="380" y="290" />
              <mxPoint x="420" y="290" />
            </Array>
          </mxGeometry>
        </mxCell>
        <mxCell id="Wzdw9sVgJ23WoQxjr1G9-2" value="ADC2" style="rounded=0;whiteSpace=wrap;html=1;" vertex="1" parent="1">
          <mxGeometry x="320" y="310" width="80" height="40" as="geometry" />
        </mxCell>
        <mxCell id="Wzdw9sVgJ23WoQxjr1G9-17" style="edgeStyle=orthogonalEdgeStyle;rounded=0;orthogonalLoop=1;jettySize=auto;html=1;exitX=0;exitY=0.5;exitDx=0;exitDy=0;entryX=1;entryY=0.75;entryDx=0;entryDy=0;fillColor=#d5e8d4;strokeColor=#82b366;" edge="1" parent="1" source="Wzdw9sVgJ23WoQxjr1G9-3" target="Wzdw9sVgJ23WoQxjr1G9-14">
          <mxGeometry relative="1" as="geometry" />
        </mxCell>
        <mxCell id="Wzdw9sVgJ23WoQxjr1G9-24" style="edgeStyle=orthogonalEdgeStyle;rounded=0;orthogonalLoop=1;jettySize=auto;html=1;exitX=0.75;exitY=0;exitDx=0;exitDy=0;endArrow=oval;endFill=1;jumpStyle=arc;startArrow=classic;startFill=1;fillColor=#f8cecc;strokeColor=#b85450;" edge="1" parent="1" source="Wzdw9sVgJ23WoQxjr1G9-3">
          <mxGeometry relative="1" as="geometry">
            <mxPoint x="420" y="290" as="targetPoint" />
            <Array as="points">
              <mxPoint x="380" y="360" />
              <mxPoint x="420" y="360" />
            </Array>
          </mxGeometry>
        </mxCell>
        <mxCell id="Wzdw9sVgJ23WoQxjr1G9-3" value="ADC3" style="rounded=0;whiteSpace=wrap;html=1;" vertex="1" parent="1">
          <mxGeometry x="320" y="380" width="80" height="40" as="geometry" />
        </mxCell>
        <mxCell id="Wzdw9sVgJ23WoQxjr1G9-11" style="edgeStyle=orthogonalEdgeStyle;rounded=0;orthogonalLoop=1;jettySize=auto;html=1;exitX=0;exitY=0.5;exitDx=0;exitDy=0;entryX=1;entryY=0.5;entryDx=0;entryDy=0;jumpStyle=arc;fillColor=#d5e8d4;strokeColor=#82b366;" edge="1" parent="1" source="Wzdw9sVgJ23WoQxjr1G9-4" target="Wzdw9sVgJ23WoQxjr1G9-1">
          <mxGeometry relative="1" as="geometry" />
        </mxCell>
        <mxCell id="Wzdw9sVgJ23WoQxjr1G9-33" style="edgeStyle=orthogonalEdgeStyle;rounded=0;jumpStyle=arc;orthogonalLoop=1;jettySize=auto;html=1;startArrow=classic;startFill=1;endArrow=oval;endFill=1;exitX=0.5;exitY=0;exitDx=0;exitDy=0;fillColor=#f8cecc;strokeColor=#b85450;" edge="1" parent="1" source="Wzdw9sVgJ23WoQxjr1G9-4">
          <mxGeometry relative="1" as="geometry">
            <mxPoint x="530" y="195" as="targetPoint" />
            <mxPoint x="610" y="230" as="sourcePoint" />
            <Array as="points">
              <mxPoint x="610" y="195" />
            </Array>
          </mxGeometry>
        </mxCell>
        <mxCell id="Wzdw9sVgJ23WoQxjr1G9-4" value="M1" style="ellipse;whiteSpace=wrap;html=1;aspect=fixed;" vertex="1" parent="1">
          <mxGeometry x="590" y="240" width="40" height="40" as="geometry" />
        </mxCell>
        <mxCell id="Wzdw9sVgJ23WoQxjr1G9-12" style="edgeStyle=orthogonalEdgeStyle;rounded=0;orthogonalLoop=1;jettySize=auto;html=1;exitX=0;exitY=0.5;exitDx=0;exitDy=0;entryX=1;entryY=0.5;entryDx=0;entryDy=0;jumpStyle=arc;fillColor=#d5e8d4;strokeColor=#82b366;" edge="1" parent="1" source="Wzdw9sVgJ23WoQxjr1G9-7" target="Wzdw9sVgJ23WoQxjr1G9-3">
          <mxGeometry relative="1" as="geometry" />
        </mxCell>
        <mxCell id="Wzdw9sVgJ23WoQxjr1G9-7" value="M3" style="ellipse;whiteSpace=wrap;html=1;aspect=fixed;" vertex="1" parent="1">
          <mxGeometry x="590" y="380" width="40" height="40" as="geometry" />
        </mxCell>
        <mxCell id="Wzdw9sVgJ23WoQxjr1G9-10" style="edgeStyle=orthogonalEdgeStyle;rounded=0;orthogonalLoop=1;jettySize=auto;html=1;jumpStyle=arc;fillColor=#d5e8d4;strokeColor=#82b366;" edge="1" parent="1" source="Wzdw9sVgJ23WoQxjr1G9-8" target="Wzdw9sVgJ23WoQxjr1G9-2">
          <mxGeometry relative="1" as="geometry" />
        </mxCell>
        <mxCell id="Wzdw9sVgJ23WoQxjr1G9-8" value="M2" style="ellipse;whiteSpace=wrap;html=1;aspect=fixed;" vertex="1" parent="1">
          <mxGeometry x="510" y="310" width="40" height="40" as="geometry" />
        </mxCell>
        <mxCell id="Wzdw9sVgJ23WoQxjr1G9-14" value="Raspberry Pi" style="rounded=0;whiteSpace=wrap;html=1;" vertex="1" parent="1">
          <mxGeometry x="90" y="290" width="140" height="80" as="geometry" />
        </mxCell>
        <mxCell id="Wzdw9sVgJ23WoQxjr1G9-32" style="edgeStyle=orthogonalEdgeStyle;rounded=0;jumpStyle=arc;orthogonalLoop=1;jettySize=auto;html=1;exitX=0;exitY=0.5;exitDx=0;exitDy=0;endArrow=oval;endFill=1;startArrow=classic;startFill=1;fillColor=#f8cecc;strokeColor=#b85450;" edge="1" parent="1" source="Wzdw9sVgJ23WoQxjr1G9-18">
          <mxGeometry relative="1" as="geometry">
            <mxPoint x="160" y="195" as="targetPoint" />
            <mxPoint x="330" y="160" as="sourcePoint" />
          </mxGeometry>
        </mxCell>
        <mxCell id="Wzdw9sVgJ23WoQxjr1G9-35" style="edgeStyle=orthogonalEdgeStyle;rounded=0;jumpStyle=arc;orthogonalLoop=1;jettySize=auto;html=1;exitX=1;exitY=0.5;exitDx=0;exitDy=0;startArrow=none;startFill=0;endArrow=oval;endFill=1;fillColor=#f8cecc;strokeColor=#b85450;" edge="1" parent="1" source="Wzdw9sVgJ23WoQxjr1G9-18">
          <mxGeometry relative="1" as="geometry">
            <mxPoint x="420" y="195" as="targetPoint" />
            <mxPoint x="390" y="160" as="sourcePoint" />
            <Array as="points">
              <mxPoint x="420" y="155" />
            </Array>
          </mxGeometry>
        </mxCell>
        <mxCell id="Wzdw9sVgJ23WoQxjr1G9-18" value="LP" style="rounded=0;whiteSpace=wrap;html=1;" vertex="1" parent="1">
          <mxGeometry x="330" y="140" width="60" height="30" as="geometry" />
        </mxCell>
        <mxCell id="Wzdw9sVgJ23WoQxjr1G9-31" style="edgeStyle=orthogonalEdgeStyle;rounded=0;jumpStyle=arc;orthogonalLoop=1;jettySize=auto;html=1;entryX=0.5;entryY=0;entryDx=0;entryDy=0;endArrow=none;endFill=0;startArrow=classic;startFill=1;fillColor=#f8cecc;strokeColor=#b85450;" edge="1" parent="1" source="Wzdw9sVgJ23WoQxjr1G9-19" target="Wzdw9sVgJ23WoQxjr1G9-14">
          <mxGeometry relative="1" as="geometry">
            <Array as="points">
              <mxPoint x="160" y="195" />
            </Array>
          </mxGeometry>
        </mxCell>
        <mxCell id="Wzdw9sVgJ23WoQxjr1G9-19" value="LP" style="rounded=0;whiteSpace=wrap;html=1;" vertex="1" parent="1">
          <mxGeometry x="330" y="180" width="60" height="30" as="geometry" />
        </mxCell>
        <mxCell id="Wzdw9sVgJ23WoQxjr1G9-34" value="" style="endArrow=none;html=1;fillColor=#f8cecc;strokeColor=#b85450;" edge="1" parent="1">
          <mxGeometry width="50" height="50" relative="1" as="geometry">
            <mxPoint x="530" y="194.8" as="sourcePoint" />
            <mxPoint x="420" y="194.8" as="targetPoint" />
          </mxGeometry>
        </mxCell>
        <mxCell id="Wzdw9sVgJ23WoQxjr1G9-36" value="" style="endArrow=classic;html=1;entryX=0.5;entryY=0;entryDx=0;entryDy=0;jumpStyle=arc;fillColor=#f8cecc;strokeColor=#b85450;" edge="1" parent="1" target="Wzdw9sVgJ23WoQxjr1G9-8">
          <mxGeometry width="50" height="50" relative="1" as="geometry">
            <mxPoint x="530" y="196" as="sourcePoint" />
            <mxPoint x="420" y="236" as="targetPoint" />
          </mxGeometry>
        </mxCell>
        <mxCell id="Wzdw9sVgJ23WoQxjr1G9-37" value="" style="endArrow=classic;html=1;entryX=0.5;entryY=0;entryDx=0;entryDy=0;rounded=0;startArrow=oval;startFill=1;jumpStyle=arc;fillColor=#f8cecc;strokeColor=#b85450;" edge="1" parent="1">
          <mxGeometry width="50" height="50" relative="1" as="geometry">
            <mxPoint x="570" y="195" as="sourcePoint" />
            <mxPoint x="610" y="379" as="targetPoint" />
            <Array as="points">
              <mxPoint x="570" y="279" />
              <mxPoint x="570" y="319" />
              <mxPoint x="610" y="319" />
            </Array>
          </mxGeometry>
        </mxCell>
        <mxCell id="Wzdw9sVgJ23WoQxjr1G9-38" value="V&lt;sub&gt;DD&lt;/sub&gt;" style="text;html=1;align=center;verticalAlign=middle;resizable=0;points=[];autosize=1;rotation=0;fillColor=#f8cecc;strokeColor=#b85450;" vertex="1" parent="1">
          <mxGeometry x="90" y="150" width="40" height="30" as="geometry" />
        </mxCell>
        <mxCell id="Wzdw9sVgJ23WoQxjr1G9-39" value="D&lt;sub&gt;IN&lt;/sub&gt;" style="text;html=1;align=center;verticalAlign=middle;resizable=0;points=[];autosize=1;fillColor=#d5e8d4;strokeColor=#82b366;" vertex="1" parent="1">
          <mxGeometry x="90" y="190" width="40" height="30" as="geometry" />
        </mxCell>
      </root>
    </mxGraphModel>
  </diagram>
</mxfile>
